<?xml version="1.0" encoding="utf-8"?>
<!-- Generator: Adobe Illustrator 16.0.0, SVG Export Plug-In . SVG Version: 6.00 Build 0)  -->
<!DOCTYPE svg PUBLIC "-//W3C//DTD SVG 1.1//EN" "http://www.w3.org/Graphics/SVG/1.1/DTD/svg11.dtd">
<svg version="1.1" id="图层_1" xmlns="http://www.w3.org/2000/svg" xmlns:xlink="http://www.w3.org/1999/xlink" x="0px" y="0px"
	 width="284.065px" height="284.065px" viewBox="0 0 284.065 284.065" enable-background="new 0 0 284.065 284.065"
	 xml:space="preserve">
<g>
	<rect fill="#FFFFFF" width="284.065" height="284.065"/>
	<g>
		<polygon fill="#1DB494" points="247.051,132.093 247.051,56.689 182.09,56.798 182.09,18.517 105.229,18.517 105.471,41.903 
			105.59,63.949 88.047,63.949 88.047,86.663 110.76,86.663 110.76,109.377 88.047,109.377 88.047,132.093 110.76,132.093 
			110.76,154.806 88.047,154.806 88.047,177.521 110.76,177.521 110.76,200.236 88.047,200.236 88.047,222.949 65.333,222.949 
			65.333,245.667 178.907,200.236 201.619,200.236 201.619,177.521 178.907,177.521 178.907,132.093 		"/>
		<rect x="135.464" y="45.44" fill="#FDD58E" width="22.715" height="22.715"/>
		<rect x="195.564" y="154.419" fill="#EE84A5" width="22.715" height="22.713"/>
		<rect x="43.449" y="222.954" fill="#1DB494" width="22.714" height="22.714"/>
		<rect x="43.449" y="202.375" fill="#1DB494" width="22.714" height="22.714"/>
		<rect x="43.449" y="183.871" fill="#1DB494" width="22.714" height="22.714"/>
		<rect x="43.253" y="137.954" fill="#1DB494" width="22.713" height="22.715"/>
		<rect x="43.253" y="86.275" fill="#1DB494" width="22.713" height="22.714"/>
		<rect x="83.472" y="62.459" fill="#1DB494" width="93.278" height="167.323"/>
		<rect x="66.164" y="62.459" fill="#1DB494" width="112.744" height="183.208"/>
		<rect x="92.128" y="122.074" fill="#EFE89C" width="77.893" height="123.593"/>
		<rect x="117.131" y="86.275" fill="#EFE89C" width="129.92" height="45.817"/>
		<rect x="221.706" y="79.288" fill="#FFFFFF" width="18.03" height="22.358"/>
		<path fill="#603813" stroke="#A67C52" stroke-width="3" stroke-miterlimit="10" d="M160.884,173.526"/>
		<path fill="#603813" stroke="#A67C52" stroke-width="3" stroke-miterlimit="10" d="M107.033,173.526"/>
		<path fill="#603813" stroke="#A67C52" stroke-width="3" stroke-miterlimit="10" d="M162.326,202.375"/>
		<path fill="#603813" stroke="#A67C52" stroke-width="3" stroke-miterlimit="10" d="M108.476,202.375"/>
		<path fill="#603813" stroke="#A67C52" stroke-width="3" stroke-miterlimit="10" d="M182.09,18.517"/>
		<circle fill="#FDD58E" cx="141.183" cy="51.16" r="5.639"/>
		<rect x="21.027" y="245.667" fill="#1DB494" width="157.88" height="26.207"/>
	</g>
</g>
</svg>
