<?xml version="1.0" encoding="utf-8"?>
<!-- Generator: Adobe Illustrator 16.0.0, SVG Export Plug-In . SVG Version: 6.00 Build 0)  -->
<!DOCTYPE svg PUBLIC "-//W3C//DTD SVG 1.1//EN" "http://www.w3.org/Graphics/SVG/1.1/DTD/svg11.dtd">
<svg version="1.1" id="图层_1" xmlns="http://www.w3.org/2000/svg" xmlns:xlink="http://www.w3.org/1999/xlink" x="0px" y="0px"
	 width="750px" height="1254px" viewBox="0 0 750 1254" enable-background="new 0 0 750 1254" xml:space="preserve">
<rect fill="#59D3B3" width="750" height="1254"/>
<g>
	<g>
		<ellipse fill="#EFE89C" cx="133.731" cy="627.178" rx="112.175" ry="56.087"/>
		<linearGradient id="SVGID_1_" gradientUnits="userSpaceOnUse" x1="35.4326" y1="627.1758" x2="232.0288" y2="627.1758">
			<stop  offset="0.1687" style="stop-color:#486357"/>
			<stop  offset="0.5226" style="stop-color:#517A65"/>
			<stop  offset="0.5416" style="stop-color:#4C7560"/>
			<stop  offset="0.6409" style="stop-color:#386049"/>
			<stop  offset="0.7352" style="stop-color:#2B533C"/>
			<stop  offset="0.8186" style="stop-color:#274F37"/>
		</linearGradient>
		<path fill="url(#SVGID_1_)" d="M232.029,627.176c0-20.027-23.957-37.256-58.324-44.913c-1.452-0.325-2.922-0.631-4.41-0.919
			c-11.029-2.141-23.022-3.316-35.565-3.316c-54.288,0-98.297,22.004-98.297,49.148c0,27.145,44.009,49.148,98.297,49.148
			C188.02,676.324,232.029,654.32,232.029,627.176z"/>
	</g>
	<g>
		<ellipse fill="#EFE89C" cx="375.219" cy="627.176" rx="112.175" ry="56.086"/>
		<linearGradient id="SVGID_2_" gradientUnits="userSpaceOnUse" x1="276.9204" y1="627.1753" x2="473.5176" y2="627.1753">
			<stop  offset="0.1687" style="stop-color:#486357"/>
			<stop  offset="0.5226" style="stop-color:#517A65"/>
			<stop  offset="0.5416" style="stop-color:#4C7560"/>
			<stop  offset="0.6409" style="stop-color:#386049"/>
			<stop  offset="0.7352" style="stop-color:#2B533C"/>
			<stop  offset="0.8186" style="stop-color:#274F37"/>
		</linearGradient>
		<path fill="url(#SVGID_2_)" d="M473.518,627.176c0-20.027-23.957-37.257-58.324-44.914c-1.453-0.325-2.922-0.631-4.41-0.919
			c-11.029-2.141-23.023-3.316-35.565-3.316c-54.289,0-98.298,22.005-98.298,49.149c0,27.143,44.009,49.148,98.298,49.148
			C429.508,676.324,473.518,654.318,473.518,627.176z"/>
	</g>
	<g>
		<ellipse fill="#EFE89C" cx="616.269" cy="627.176" rx="112.175" ry="56.087"/>
		<linearGradient id="SVGID_3_" gradientUnits="userSpaceOnUse" x1="517.9707" y1="627.1738" x2="714.5664" y2="627.1738">
			<stop  offset="0.1687" style="stop-color:#486357"/>
			<stop  offset="0.5226" style="stop-color:#517A65"/>
			<stop  offset="0.5416" style="stop-color:#4C7560"/>
			<stop  offset="0.6409" style="stop-color:#386049"/>
			<stop  offset="0.7352" style="stop-color:#2B533C"/>
			<stop  offset="0.8186" style="stop-color:#274F37"/>
		</linearGradient>
		<path fill="url(#SVGID_3_)" d="M714.566,627.174c0-20.027-23.957-37.256-58.324-44.913c-1.451-0.325-2.922-0.631-4.408-0.919
			c-11.029-2.141-23.023-3.316-35.566-3.316c-54.287,0-98.297,22.004-98.297,49.148c0,27.145,44.01,49.148,98.297,49.148
			C670.559,676.322,714.566,654.318,714.566,627.174z"/>
	</g>
</g>
<g>
	<ellipse fill="#EFE89C" cx="133.731" cy="873.574" rx="112.175" ry="56.088"/>
	<linearGradient id="SVGID_4_" gradientUnits="userSpaceOnUse" x1="35.4326" y1="873.5723" x2="232.0288" y2="873.5723">
		<stop  offset="0.1687" style="stop-color:#486357"/>
		<stop  offset="0.5226" style="stop-color:#517A65"/>
		<stop  offset="0.5416" style="stop-color:#4C7560"/>
		<stop  offset="0.6409" style="stop-color:#386049"/>
		<stop  offset="0.7352" style="stop-color:#2B533C"/>
		<stop  offset="0.8186" style="stop-color:#274F37"/>
	</linearGradient>
	<path fill="url(#SVGID_4_)" d="M232.029,873.572c0-20.027-23.957-37.256-58.324-44.914c-1.452-0.324-2.922-0.631-4.41-0.92
		c-11.029-2.141-23.022-3.314-35.565-3.314c-54.288,0-98.297,22.004-98.297,49.148c0,27.143,44.009,49.148,98.297,49.148
		C188.02,922.721,232.029,900.715,232.029,873.572z"/>
</g>
<g>
	<ellipse fill="#EFE89C" cx="616.269" cy="873.572" rx="112.175" ry="56.088"/>
	<linearGradient id="SVGID_5_" gradientUnits="userSpaceOnUse" x1="517.9707" y1="873.5703" x2="714.5664" y2="873.5703">
		<stop  offset="0.1687" style="stop-color:#486357"/>
		<stop  offset="0.5226" style="stop-color:#517A65"/>
		<stop  offset="0.5416" style="stop-color:#4C7560"/>
		<stop  offset="0.6409" style="stop-color:#386049"/>
		<stop  offset="0.7352" style="stop-color:#2B533C"/>
		<stop  offset="0.8186" style="stop-color:#274F37"/>
	</linearGradient>
	<path fill="url(#SVGID_5_)" d="M714.566,873.57c0-20.027-23.957-37.256-58.324-44.914c-1.451-0.324-2.922-0.631-4.408-0.92
		c-11.029-2.141-23.023-3.314-35.566-3.314c-54.287,0-98.297,22.004-98.297,49.148c0,27.143,44.01,49.148,98.297,49.148
		C670.559,922.719,714.566,900.713,714.566,873.57z"/>
</g>
<g>
	<ellipse fill="#EFE89C" cx="375.001" cy="873.572" rx="112.175" ry="56.088"/>
	<linearGradient id="SVGID_6_" gradientUnits="userSpaceOnUse" x1="276.7026" y1="873.5703" x2="473.2988" y2="873.5703">
		<stop  offset="0.1687" style="stop-color:#486357"/>
		<stop  offset="0.5226" style="stop-color:#517A65"/>
		<stop  offset="0.5416" style="stop-color:#4C7560"/>
		<stop  offset="0.6409" style="stop-color:#386049"/>
		<stop  offset="0.7352" style="stop-color:#2B533C"/>
		<stop  offset="0.8186" style="stop-color:#274F37"/>
	</linearGradient>
	<path fill="url(#SVGID_6_)" d="M473.299,873.57c0-20.027-23.957-37.256-58.324-44.914c-1.453-0.324-2.922-0.631-4.41-0.92
		c-11.029-2.141-23.023-3.314-35.565-3.314c-54.289,0-98.297,22.004-98.297,49.148c0,27.143,44.008,49.148,98.297,49.148
		C429.289,922.719,473.299,900.713,473.299,873.57z"/>
</g>
<g>
	<g>
		<ellipse fill="#EFE89C" cx="133.731" cy="1119.969" rx="112.175" ry="56.086"/>
		<linearGradient id="SVGID_7_" gradientUnits="userSpaceOnUse" x1="35.4326" y1="1119.9668" x2="232.0288" y2="1119.9668">
			<stop  offset="0.1687" style="stop-color:#486357"/>
			<stop  offset="0.5226" style="stop-color:#517A65"/>
			<stop  offset="0.5416" style="stop-color:#4C7560"/>
			<stop  offset="0.6409" style="stop-color:#386049"/>
			<stop  offset="0.7352" style="stop-color:#2B533C"/>
			<stop  offset="0.8186" style="stop-color:#274F37"/>
		</linearGradient>
		<path fill="url(#SVGID_7_)" d="M232.029,1119.969c0-20.027-23.957-37.258-58.324-44.914c-1.452-0.324-2.922-0.631-4.41-0.92
			c-11.029-2.141-23.022-3.316-35.565-3.316c-54.288,0-98.297,22.006-98.297,49.15c0,27.143,44.009,49.146,98.297,49.146
			C188.02,1169.115,232.029,1147.111,232.029,1119.969z"/>
	</g>
	<g>
		<ellipse fill="#EFE89C" cx="375.219" cy="1119.969" rx="112.175" ry="56.088"/>
		<linearGradient id="SVGID_8_" gradientUnits="userSpaceOnUse" x1="276.9204" y1="1119.9668" x2="473.5176" y2="1119.9668">
			<stop  offset="0.1687" style="stop-color:#486357"/>
			<stop  offset="0.5226" style="stop-color:#517A65"/>
			<stop  offset="0.5416" style="stop-color:#4C7560"/>
			<stop  offset="0.6409" style="stop-color:#386049"/>
			<stop  offset="0.7352" style="stop-color:#2B533C"/>
			<stop  offset="0.8186" style="stop-color:#274F37"/>
		</linearGradient>
		<path fill="url(#SVGID_8_)" d="M473.518,1119.967c0-20.027-23.957-37.256-58.324-44.914c-1.453-0.324-2.922-0.631-4.41-0.918
			c-11.029-2.143-23.023-3.316-35.565-3.316c-54.289,0-98.298,22.004-98.298,49.148c0,27.143,44.009,49.148,98.298,49.148
			C429.508,1169.115,473.518,1147.109,473.518,1119.967z"/>
	</g>
	<g>
		<ellipse fill="#EFE89C" cx="616.269" cy="1119.967" rx="112.175" ry="56.086"/>
		<linearGradient id="SVGID_9_" gradientUnits="userSpaceOnUse" x1="517.9707" y1="1119.9648" x2="714.5664" y2="1119.9648">
			<stop  offset="0.1687" style="stop-color:#486357"/>
			<stop  offset="0.5226" style="stop-color:#517A65"/>
			<stop  offset="0.5416" style="stop-color:#4C7560"/>
			<stop  offset="0.6409" style="stop-color:#386049"/>
			<stop  offset="0.7352" style="stop-color:#2B533C"/>
			<stop  offset="0.8186" style="stop-color:#274F37"/>
		</linearGradient>
		<path fill="url(#SVGID_9_)" d="M714.566,1119.967c0-20.027-23.957-37.258-58.324-44.914c-1.451-0.324-2.922-0.631-4.408-0.92
			c-11.029-2.141-23.023-3.316-35.566-3.316c-54.287,0-98.297,22.006-98.297,49.15c0,27.143,44.01,49.146,98.297,49.146
			C670.559,1169.113,714.566,1147.109,714.566,1119.967z"/>
	</g>
</g>
<path fill="#603813" stroke="#A67C52" stroke-width="3" stroke-miterlimit="10" d="M163.062,935.596"/>
<path fill="#603813" stroke="#A67C52" stroke-width="3" stroke-miterlimit="10" d="M128.883,935.596"/>
<path fill="#603813" stroke="#A67C52" stroke-width="3" stroke-miterlimit="10" d="M163.978,953.906"/>
<path fill="#603813" stroke="#A67C52" stroke-width="3" stroke-miterlimit="10" d="M129.801,953.906"/>
<path fill="#603813" stroke="#A67C52" stroke-width="3" stroke-miterlimit="10" d="M176.521,837.215"/>
<g>
	<path fill="#EFE89C" d="M375.218,922.719c-52.683,0-95.682-20.723-98.18-46.752h-13.887c2.511,29.863,51.719,53.691,112.066,53.691
		c60.348,0,109.557-23.828,112.067-53.691h-13.887C470.9,901.996,427.902,922.719,375.218,922.719z"/>
	<g>
		<linearGradient id="SVGID_10_" gradientUnits="userSpaceOnUse" x1="263.1421" y1="875.9414" x2="263.1421" y2="875.9414">
			<stop  offset="0.1687" style="stop-color:#486357"/>
			<stop  offset="0.5226" style="stop-color:#517A65"/>
			<stop  offset="0.5416" style="stop-color:#4C7560"/>
			<stop  offset="0.6409" style="stop-color:#386049"/>
			<stop  offset="0.7352" style="stop-color:#2B533C"/>
			<stop  offset="0.8186" style="stop-color:#274F37"/>
		</linearGradient>
		<path fill="url(#SVGID_10_)" d="M263.142,875.941"/>
		<path fill="#59D3B3" d="M375.208,929.633c-60.348,0-109.557-23.828-112.066-53.691h-0.109v187.914h224.35V875.941h-0.107
			C484.766,905.805,435.557,929.633,375.208,929.633z"/>
		<linearGradient id="SVGID_11_" gradientUnits="userSpaceOnUse" x1="473.3887" y1="875.9414" x2="473.3887" y2="875.9414">
			<stop  offset="0.1687" style="stop-color:#486357"/>
			<stop  offset="0.5226" style="stop-color:#517A65"/>
			<stop  offset="0.5416" style="stop-color:#4C7560"/>
			<stop  offset="0.6409" style="stop-color:#386049"/>
			<stop  offset="0.7352" style="stop-color:#2B533C"/>
			<stop  offset="0.8186" style="stop-color:#274F37"/>
		</linearGradient>
		<path fill="url(#SVGID_11_)" d="M473.389,875.941"/>
	</g>
</g>
</svg>
