<?xml version="1.0" encoding="utf-8"?>
<!-- Generator: Adobe Illustrator 16.0.0, SVG Export Plug-In . SVG Version: 6.00 Build 0)  -->
<!DOCTYPE svg PUBLIC "-//W3C//DTD SVG 1.1//EN" "http://www.w3.org/Graphics/SVG/1.1/DTD/svg11.dtd">
<svg version="1.1" id="图层_1" xmlns="http://www.w3.org/2000/svg" xmlns:xlink="http://www.w3.org/1999/xlink" x="0px" y="0px"
	 width="143.456px" height="160.803px" viewBox="0 0 143.456 160.803" enable-background="new 0 0 143.456 160.803"
	 xml:space="preserve">
<g>
	<polygon fill="#614650" points="143.456,72.084 143.456,24.226 102.224,24.296 102.224,0 53.443,0 53.596,14.842 53.67,28.835 
		42.537,28.835 42.537,43.251 56.953,43.251 56.953,57.668 42.537,57.668 42.537,72.084 56.953,72.084 56.953,86.499 42.537,86.499 
		42.537,100.919 56.953,100.919 56.953,115.336 42.537,115.336 42.537,129.75 28.121,129.75 28.121,144.168 100.205,115.336 
		114.619,115.336 114.619,100.919 100.205,100.919 100.205,72.084 	"/>
	<rect x="14.23" y="104.946" fill="#614650" width="14.417" height="14.419"/>
	<rect x="114.585" y="86.57" fill="#EE84A5" width="14.415" height="14.419"/>
	<rect x="14.23" y="129.752" fill="#614650" width="14.416" height="14.418"/>
	<rect x="14.23" y="116.69" fill="#614650" width="14.416" height="14.418"/>
	<rect x="14.23" y="104.948" fill="#614650" width="14.416" height="14.415"/>
	<rect x="39.633" y="27.888" fill="#614650" width="59.202" height="106.198"/>
	<rect x="28.648" y="27.888" fill="#614650" width="71.558" height="116.28"/>
	<rect x="42.376" y="65.727" fill="#EFEBBF" width="49.438" height="78.443"/>
	<rect x="60.997" y="43.003" fill="#EFEBBF" width="82.459" height="29.081"/>
	<rect x="127.369" y="38.569" fill="#FFFFFF" width="11.443" height="14.19"/>
	<path fill="#603813" stroke="#A67C52" stroke-width="3" stroke-miterlimit="10" d="M88.765,98.381"/>
	<path fill="#603813" stroke="#A67C52" stroke-width="3" stroke-miterlimit="10" d="M54.586,98.381"/>
	<path fill="#603813" stroke="#A67C52" stroke-width="3" stroke-miterlimit="10" d="M89.681,116.69"/>
	<path fill="#603813" stroke="#A67C52" stroke-width="3" stroke-miterlimit="10" d="M55.504,116.69"/>
	<path fill="#603813" stroke="#A67C52" stroke-width="3" stroke-miterlimit="10" d="M102.224,0"/>
	<circle fill="#FDD58E" cx="76.262" cy="20.717" r="3.579"/>
	<rect y="144.168" fill="#614650" width="100.206" height="16.635"/>
	<rect x="12.573" y="43.966" fill="#614650" width="16.075" height="16.074"/>
	<rect x="12.68" y="77.705" fill="#614650" width="16.076" height="16.076"/>
	<rect x="68.763" y="12.679" fill="#FDD58E" width="16.075" height="16.077"/>
</g>
</svg>
