<?xml version="1.0" encoding="utf-8"?>
<!-- Generator: Adobe Illustrator 16.0.0, SVG Export Plug-In . SVG Version: 6.00 Build 0)  -->
<!DOCTYPE svg PUBLIC "-//W3C//DTD SVG 1.1//EN" "http://www.w3.org/Graphics/SVG/1.1/DTD/svg11.dtd">
<svg version="1.1" id="图层_1" xmlns="http://www.w3.org/2000/svg" xmlns:xlink="http://www.w3.org/1999/xlink" x="0px" y="0px"
	 width="193.498px" height="675.92px" viewBox="0 0 193.498 675.92" enable-background="new 0 0 193.498 675.92"
	 xml:space="preserve">
<g>
	<g>
		<path fill="#FFDC2E" d="M96.981,663.982L97.55,49.494l-37.65-0.035c0,0,5.608,81.699-46.356,195.315c0,0-4.989,17.755-0.02,21.311
			c0.71,0.001-15.676,51.844-7.204,107.973c-0.001,1.422,1.447,7.817-2.479,9.944c-0.487,6.84,3.875,16.344,10.937,62.524
			c7.062,46.182,8.405,130.011-7.949,145.625c-5.506,7.669-4.768,39.191,2.079,56.83c6.831,17.6,36.202,27.147,88.063,26.581"/>
		<path fill="#FFDC2E" d="M95.917,663.982l0.568-614.491l37.65,0.036c0,0-5.759,81.689,45.997,195.401c0,0,4.955,17.766-0.02,21.312
			c-0.71-0.001,15.58,51.873,7.002,107.987c-0.003,3.34-3.005,6.971,2.461,9.946c0.474,6.842-3.905,16.336-11.054,62.504
			c-7.145,46.169-8.646,129.994,7.68,145.639c5.492,7.681,4.227,39.072-2.184,56.829c-6.41,17.756-36.252,27.08-88.113,26.419"/>
	</g>
	<g>
		<g>
			<path fill="#FFDC2E" d="M137.855,11.595c-0.006,6.278-5.099,11.361-11.375,11.356l-58.963-0.055
				c-6.277-0.006-11.361-5.099-11.355-11.377l0,0c0.006-6.277,5.1-11.361,11.377-11.355l58.964,0.055
				C132.777,0.224,137.862,5.317,137.855,11.595L137.855,11.595z"/>
		</g>
		<g>
			<path fill="#FFDC2E" d="M137.827,43.563c-0.006,6.277-5.1,11.361-11.376,11.355l-58.964-0.055
				c-6.277-0.005-11.361-5.098-11.355-11.376l0,0c0.005-6.278,5.099-11.361,11.376-11.355l58.962,0.055
				C132.748,32.192,137.833,37.285,137.827,43.563L137.827,43.563z"/>
			<path fill="#FFDC2E" d="M67.774,13.83c0,0-11.06,22.464-11.019,27.227c0.857,3.259,44.229-1.407,44.229-1.407l36.161-0.13l0,0
				l-15.643-27.94"/>
		</g>
	</g>
	<g>
		<g>
			<path fill="#F97857" d="M107.512,395.68c0,0-100.218-133.152-95.25-129.595c0.71,0-15.676,51.842-7.204,107.973
				c-0.001,1.422,0.959,7.813-2.967,9.942c-0.487,6.84,2.962,20.82,11.425,62.524c9.338,46.021,8.404,130.011-7.949,145.623
				c-5.508,7.673-4.769,39.195,2.078,56.834c6.831,17.6,36.201,27.146,88.063,26.582"/>
			<path fill="#F97857" d="M132.658,443.08c-36.466-78.313-57.423-127.882-23.43-13.833c-0.001,3.342,27.103,36.932,42.55,81.025
				c13.815,39.438,18.587,66.401,34.911,82.044c5.494,7.681,4.226,39.072-2.184,56.828c-6.411,17.757-36.251,27.078-88.113,26.418"
				/>
			
				<rect x="56.417" y="444.682" transform="matrix(-1 -9.378511e-004 9.378511e-004 -1 183.1285 1104.6963)" fill="#F97857" width="70.812" height="215.247"/>
			<rect x="80.447" y="417.518" fill="#F97857" width="37.377" height="47.417"/>
			<rect x="100.25" y="431.909" fill="#F97857" width="17.566" height="33.036"/>
			<rect x="109.186" y="450.57" fill="#F97857" width="27.706" height="49.019"/>
			<rect x="64.829" y="570.42" fill="#F97857" width="46.886" height="101.229"/>
		</g>
	</g>
	<path fill="#9AFACC" d="M12.716,265.058c0,0,92.969-65.988,169.972,322.767c1.572,1.851,11.101,6.399,6.962,39.564
		c-0.662,5.319-4.017,8.706-6.152,15.613c-2.236-2.132-75.493-376.648-178.34-266.596C5.159,376.406-6.019,318.319,12.716,265.058z"
		/>
	<path fill="#FFDC2E" d="M180.702,264.997c0,0-118.106-66.768-125.188-153.572c-0.607,5.422-10.043,46.721-10.043,46.721
		s152.347,209.735,140.44,218.426c5.648-24.834,5.585-57.168,2.725-76.188"/>
	<path fill="#FF4958" d="M19.349,504.635c0,0,71.614-4.182,97.941,84.643c0,0,16.876,32.788,60.352,28.164
		c22.697,8.892,11.761,28.913,3.647,38.85c-6.664,8.164-10.899,15.081-57.386,18.507c-0.829,0.062-31.519,2.279-51.353,0.228
		c-4.09-0.285-57.775-0.774-65.312-29.932c-5.445-17.987-4.453-44.111-3.701-46.686C4.115,597.639,22.318,545.67,19.349,504.635z"/>
	<path fill="#FF4958" d="M6.826,380.351"/>
	<path fill="#FF4958" d="M134.527,51.559c0,0-73.519,92.065-4.396,244.51c0,0,47.88,128.045,45.824,176.457
		c0,0,4.084-33.876,14.222-83.302c0.35-1.71,0.943-2.856-0.113-5.05c-0.34-1.228-6.646,0.742,1.097-21.543
		c0,0,1.981-72.537-10.076-96.484c0,0,2.712-2.176,2.718-8.567c0.258-11.6-7.711-20.174-18.454-48.46
		C140.573,143.876,134.392,82.365,134.527,51.559z"/>
</g>
</svg>
