<?xml version="1.0" encoding="utf-8"?>
<!-- Generator: Adobe Illustrator 16.0.0, SVG Export Plug-In . SVG Version: 6.00 Build 0)  -->
<!DOCTYPE svg PUBLIC "-//W3C//DTD SVG 1.1//EN" "http://www.w3.org/Graphics/SVG/1.1/DTD/svg11.dtd">
<svg version="1.1" id="图层_1" xmlns="http://www.w3.org/2000/svg" xmlns:xlink="http://www.w3.org/1999/xlink" x="0px" y="0px"
	 width="750px" height="1254px" viewBox="0 0 750 1254" enable-background="new 0 0 750 1254" xml:space="preserve">
<g>
	<g>
		<rect x="0.006" fill="#FFF4D4" width="750" height="1254"/>
		<rect x="0.006" fill="#B3FFF4" width="749.25" height="769"/>
	</g>
	<g>
		<g>
			<defs>
				
					<rect id="SVGID_1_" x="-43.778" y="410.511" transform="matrix(-0.95 0.3123 -0.3123 -0.95 351.2035 1037.4092)" width="272.629" height="272.628"/>
			</defs>
			<clipPath id="SVGID_2_">
				<use xlink:href="#SVGID_1_"  overflow="visible"/>
			</clipPath>
			<path clip-path="url(#SVGID_2_)" fill="#856C4C" d="M175.813,556.669c-8.739,4.275-19.163,4.281-28.458,0.387
				c3.202-12.767,3.909-28.862-0.569-49.306l-4.955,1.125c11.168,51.371-10.125,73.728-22.603,82.145L70.847,474.7l21.817,86.152
				c-13.493,1.241-43.135-1.291-59.851-42.766l-4.707,1.882c6.434,15.991,14.86,26.449,23.638,33.372
				c-6.778,5.983-15.012,9.923-23.536,10.931l0.586,5.021c3.015-0.375,5.999-1.018,8.881-1.967
				c6.627-2.178,12.856-5.907,18.248-10.818c14.559,9.506,29.426,10.058,37.915,9.284l16.649,65.655
				c-17.405,2.47-49.55,2.555-65.109-25.68l-4.456,2.474c8.039,14.566,19.997,22.125,32.39,25.898
				c-8.231,7.525-19.112,12.281-30.682,12.888l0.265,5.071c4.952-0.284,9.821-1.155,14.424-2.669
				c8.347-2.743,15.876-7.46,21.846-13.683c12.164,2.56,24.038,1.853,32.513,0.69l11.149,43.979l14.012-4.605l15.429-5.07
				l-31.227-75.046c7.717-5.171,18.991-15.378,24.893-33.574c8.842,3.54,18.539,4.052,27.189,1.208
				c1.669-0.549,3.255-1.182,4.841-1.984L175.813,556.669z"/>
		</g>
		<g>
			<defs>
				
					<rect id="SVGID_3_" x="-43.778" y="410.511" transform="matrix(-0.95 0.3123 -0.3123 -0.95 351.2035 1037.4092)" width="272.629" height="272.628"/>
			</defs>
			<clipPath id="SVGID_4_">
				<use xlink:href="#SVGID_3_"  overflow="visible"/>
			</clipPath>
			<path clip-path="url(#SVGID_4_)" fill="#ADDB64" d="M110.133,446.036c-7.948-24.18-34.011-37.305-58.139-29.374
				c-24.18,7.948-37.321,33.96-29.373,58.14c7.947,24.179,33.959,37.321,58.139,29.373
				C104.889,496.244,118.064,470.165,110.133,446.036z"/>
		</g>
		<g>
			<defs>
				
					<rect id="SVGID_5_" x="-43.778" y="410.511" transform="matrix(-0.95 0.3123 -0.3123 -0.95 351.2035 1037.4092)" width="272.629" height="272.628"/>
			</defs>
			<clipPath id="SVGID_6_">
				<use xlink:href="#SVGID_5_"  overflow="visible"/>
			</clipPath>
			<path clip-path="url(#SVGID_6_)" fill="#ADDB64" d="M223.127,517.126c-7.948-24.179-33.96-37.32-58.14-29.372
				c-24.179,7.948-37.321,33.959-29.373,58.139c7.949,24.181,33.959,37.321,58.14,29.374
				C217.882,567.335,231.059,541.256,223.127,517.126z"/>
		</g>
		
			<rect x="-43.778" y="410.511" transform="matrix(-0.95 0.3123 -0.3123 -0.95 351.2035 1037.4092)" fill="none" width="272.629" height="272.628"/>
		
			<rect x="-43.778" y="410.511" transform="matrix(-0.95 0.3123 -0.3123 -0.95 351.2035 1037.4092)" fill="none" width="272.629" height="272.628"/>
	</g>
	<path fill="#ADDB64" d="M750.221,463.221c-13.66-2.048-26.789,2.476-33.85,12.217c-2.781-2.247-5.883-4.216-9.271-5.833
		c-19.639-9.376-41.871-3.831-49.629,12.419c-1.713,3.588-2.508,7.432-2.635,11.289c-24.301-4.868-47.998,4.384-57.42,24.123
		c-11.588,24.274,2.789,55.314,32.148,69.329c9.869,4.712,20.186,6.821,30.018,6.74c-6.674,16.032,2.928,35.917,22.068,45.055
		c19.59,9.352,41.799,3.856,49.578-12.443c0.334-0.698,0.643-1.469,0.924-2.191c4.363,7.236,10.496,13.862,18.068,19.23V463.221z"/>
	<polygon fill="#9E753E" points="748.725,585.8 748.209,585.932 748.725,584.894 748.725,582.292 745.775,586.544 723.891,592.133 
		748.725,527.9 748.725,515.769 733.031,543.494 713.605,497.13 720.813,525.113 709.842,520.916 721.373,527.4 727.861,552.655 
		691.102,617.61 658.813,533.83 669.352,580.604 648.578,565.913 670.807,587.173 681.529,634.585 633.854,718.813 650.354,726.688 
		668.547,735.374 720.188,601.811 748.725,589.862 	"/>
	<g opacity="0.6">
		<polygon fill="#1DB494" points="467.361,428.753 457.408,302.013 362.356,309.478 359.867,277.793 328.184,280.281 
			330.67,311.966 298.985,314.454 296.497,282.769 264.813,285.257 267.299,316.943 269.788,348.627 238.103,351.115 
			240.592,382.801 272.276,380.312 274.765,411.998 243.081,414.485 245.567,446.17 277.251,443.682 279.741,475.367 
			248.055,477.855 250.545,509.54 282.229,507.052 284.717,538.737 253.032,541.226 255.519,572.91 223.835,575.397 
			226.324,607.081 194.637,609.571 197.126,641.254 418.922,623.839 416.432,592.154 384.748,594.643 379.773,531.272 
			411.457,528.784 408.969,497.1 377.283,499.586 372.308,436.218 		"/>
		
			<rect x="334.356" y="342.358" transform="matrix(-0.9969 0.0783 -0.0783 -0.9969 727.4559 687.9885)" fill="#FDD58E" width="31.782" height="31.782"/>
		
			<rect x="407.678" y="464.121" transform="matrix(-0.9969 0.0783 -0.0783 -0.9969 883.4255 925.3814)" fill="#EE84A5" width="31.781" height="31.782"/>
	</g>
	<g>
		<g>
			<defs>
				
					<rect id="SVGID_7_" x="393.229" y="424.187" transform="matrix(-0.9805 -0.1966 0.1966 -0.9805 914.1769 1184.3893)" width="245.278" height="245.277"/>
			</defs>
			<clipPath id="SVGID_8_">
				<use xlink:href="#SVGID_7_"  overflow="visible"/>
			</clipPath>
			<path clip-path="url(#SVGID_8_)" fill="#65DBC3" d="M587.125,574.255c7.127-10.933,12.508-23.631,15.305-37.583
				c10.389-51.809-17.596-101.099-62.453-110.092c-44.857-8.994-89.678,25.7-100.064,77.509c-2.797,13.951-2.73,27.742-0.369,40.577
				L587.125,574.255z"/>
		</g>
		<g>
			<defs>
				
					<rect id="SVGID_9_" x="393.229" y="424.187" transform="matrix(-0.9805 -0.1966 0.1966 -0.9805 914.1769 1184.3893)" width="245.278" height="245.277"/>
			</defs>
			<clipPath id="SVGID_10_">
				<use xlink:href="#SVGID_9_"  overflow="visible"/>
			</clipPath>
			<polygon clip-path="url(#SVGID_10_)" fill="#856C4C" points="576.584,518.152 556.387,529.2 558.479,519.506 554.424,530.223 
				537.096,539.648 548.744,444.266 534.42,496.458 508.035,461.363 520.107,483.523 509.895,482.306 521.111,485.337 532,505.354 
				514.74,568.292 469.449,504.196 488.391,541.561 467.668,533.546 491.055,546.785 510.279,584.695 487.908,666.299 
				503.598,669.444 520.836,672.9 536.021,548.667 			"/>
		</g>
	</g>
	<path fill="#FFF4D4" d="M750.006,728.107c-60.664-68.198-201.623-115.995-365.838-115.995
		c-182.01,0-335.456,58.715-382.662,138.848v30.372h748.5V728.107z"/>
	<g>
		<path fill="#FFFEEE" d="M691.734,243.458c-22.689-0.876-42.557-11.227-54.57-26.648c-2.551,1.287-5.191,2.449-7.934,3.452
			c-4.281,11.407-19.277,21.284-40.445,27.685c-9.369,4.093-19.93,6.408-31.113,6.408h187.037c1.545,0,3.031-0.243,4.428-0.681
			c-3.9,0.438-7.906,0.68-12.002,0.68C719.791,254.353,703.939,250.244,691.734,243.458z"/>
		<path fill="#FFFEEE" d="M533.096,171.431c-0.35-2.477-0.551-4.993-0.551-7.553c0-10.93,3.295-21.18,9.039-30.056
			c-24.088,4.976-43.357,20.861-50.604,41.383c12.457-2.427,26.301-3.781,40.887-3.781
			C532.279,171.424,532.688,171.429,533.096,171.431z"/>
		<path fill="#FFFEEE" d="M540.523,156.145c0,5.37,0.799,10.576,2.285,15.538c49.313,2.325,87.674,20.179,87.674,41.863
			c0,0.366-0.012,0.732-0.033,1.096c1.439-0.378,2.855-0.792,4.25-1.248c-6.111-9.08-9.631-19.656-9.631-30.958
			c0-26.229,18.889-48.591,45.404-57.249c-12.135-18.028-34.525-30.133-60.16-30.133c-22.715,0-42.889,9.505-55.633,24.213
			C545.801,129.517,540.523,142.289,540.523,156.145z"/>
		<path fill="#FFFEEE" d="M625.068,182.437c0,11.301,3.52,21.878,9.631,30.957c0.781,1.163,1.598,2.305,2.465,3.417
			c12.016,15.421,31.883,25.773,54.57,26.649c-14.924-8.296-24.393-20.6-24.393-34.343c0-24.984,31.244-45.238,69.791-45.238
			c4.139,0,8.184,0.247,12.123,0.695v-20.39c-12.793-13.919-32.4-22.836-54.396-22.836c-8.58,0-16.795,1.363-24.387,3.841
			C643.957,133.846,625.068,156.207,625.068,182.437z"/>
		<path fill="#FFFEEE" d="M749.256,164.572c-3.938-0.448-7.982-0.695-12.121-0.695c-38.547,0-69.791,20.254-69.791,45.238
			c0,13.744,9.469,26.046,24.393,34.343c12.205,6.786,28.057,10.895,45.398,10.895c4.096,0,8.102-0.242,12.002-0.68
			c0.041-0.005,0.08-0.01,0.119-0.014V164.572z"/>
		<path fill="#FFFEEE" d="M588.785,247.946c21.168-6.401,36.164-16.278,40.445-27.685c0.688-1.836,1.104-3.711,1.219-5.619
			c0.021-0.365,0.033-0.73,0.033-1.096c0-21.684-38.359-39.538-87.674-41.863c-3.195-0.151-6.436-0.235-9.713-0.252
			c-0.408-0.002-0.816-0.007-1.229-0.007c-14.586,0-28.43,1.354-40.887,3.781c-34.055,6.638-57.727,21.308-57.727,38.341
			c0,23.263,44.148,42.121,98.611,42.121c8.463,0,16.678-0.456,24.516-1.313c0.072-0.008,0.146-0.015,0.219-0.023
			C568.314,253.039,579.184,250.85,588.785,247.946z"/>
		<rect x="517.807" y="198.229" fill="#FFFEEE" width="231.33" height="57.438"/>
		<ellipse fill="#FFFEEE" cx="557.152" cy="163.326" rx="36.666" ry="32.713"/>
	</g>
	<g>
		<path fill="#FFFEEE" d="M385.449,150.926c0-5.468-4.432-9.9-9.9-9.9h-135.3c-5.468,0-9.899,4.433-9.899,9.9v51.149
			c0,5.468,4.432,9.9,9.899,9.9h135.3c5.47,0,9.9-4.433,9.9-9.9V150.926z"/>
		<ellipse fill="#FFFEEE" cx="246.575" cy="168.525" rx="48.125" ry="43.45"/>
		<ellipse fill="#FFFEEE" cx="277.375" cy="147.625" rx="48.125" ry="43.45"/>
		<ellipse fill="#FFFEEE" cx="282.875" cy="142.125" rx="48.125" ry="43.45"/>
		<ellipse fill="#FFFEEE" cx="341.175" cy="160.825" rx="48.124" ry="43.45"/>
		<ellipse fill="#FFFEEE" cx="370.325" cy="179.8" rx="48.125" ry="32.175"/>
	</g>
	<path fill="#ADDB64" d="M-0.744,582.03c6.574,1.644,13.602,1.524,20.429-0.72c19.98-6.567,30.632-28.902,23.73-49.895
		c-6.38-19.413-25.48-30.846-44.159-27.252V582.03z"/>
	<path fill="#ADDB64" d="M-0.744,669.279c8.702,1.645,18.006,1.524,27.042-0.719c26.449-6.568,40.549-28.902,31.414-49.895
		c-8.446-19.413-33.729-30.846-58.456-27.252V669.279z"/>
	<path fill="#FFFFFF" d="M359.59,640.167"/>
	<path fill="#FFFEEE" d="M222.371,283.147c0-15.551-12.745-28.829-30.716-34.139c-5.403-21.238-24.198-36.911-46.559-36.911
		c-5.917,0-11.581,1.103-16.816,3.11c-8.367-14.594-23.808-24.393-41.484-24.393c-15.665,0-29.576,7.695-38.364,19.603
		c-3.559,3.422-6.609,7.391-9.028,11.78c-16.613,4.029-29.903,16.893-34.896,33.51c-1.442,0.33-2.865,0.676-4.251,1.054v59.945
		c9.644,2.63,20.697,4.125,32.447,4.125c5.84,0,11.507-0.37,16.916-1.064h129.852c1.065,0,2.088-0.196,3.049-0.55
		C205.153,316.23,222.371,301.224,222.371,283.147z"/>
</g>
</svg>
